<mxfile host="app.diagrams.net" agent="Mozilla/5.0 (Macintosh; Intel Mac OS X 10_15_7) AppleWebKit/605.1.15 (KHTML, like Gecko) Version/17.5 Safari/605.1.15" version="24.7.10">
  <diagram id="C5RBs43oDa-KdzZeNtuy" name="Page-1">
    <mxGraphModel dx="1084" dy="1036" grid="1" gridSize="10" guides="1" tooltips="1" connect="1" arrows="1" fold="1" page="1" pageScale="1" pageWidth="827" pageHeight="1169" math="0" shadow="0">
      <root>
        <mxCell id="WIyWlLk6GJQsqaUBKTNV-0" />
        <mxCell id="WIyWlLk6GJQsqaUBKTNV-1" parent="WIyWlLk6GJQsqaUBKTNV-0" />
        <mxCell id="7Y_Yx_4p63XLYOxIkMzx-8" style="edgeStyle=orthogonalEdgeStyle;rounded=0;orthogonalLoop=1;jettySize=auto;html=1;" parent="WIyWlLk6GJQsqaUBKTNV-1" source="7Y_Yx_4p63XLYOxIkMzx-0" target="7Y_Yx_4p63XLYOxIkMzx-2" edge="1">
          <mxGeometry relative="1" as="geometry" />
        </mxCell>
        <mxCell id="7Y_Yx_4p63XLYOxIkMzx-0" value="start" style="ellipse;whiteSpace=wrap;html=1;" parent="WIyWlLk6GJQsqaUBKTNV-1" vertex="1">
          <mxGeometry x="160" y="20" width="110" height="60" as="geometry" />
        </mxCell>
        <mxCell id="7Y_Yx_4p63XLYOxIkMzx-9" style="edgeStyle=orthogonalEdgeStyle;rounded=0;orthogonalLoop=1;jettySize=auto;html=1;" parent="WIyWlLk6GJQsqaUBKTNV-1" source="7Y_Yx_4p63XLYOxIkMzx-2" target="7Y_Yx_4p63XLYOxIkMzx-3" edge="1">
          <mxGeometry relative="1" as="geometry" />
        </mxCell>
        <mxCell id="7Y_Yx_4p63XLYOxIkMzx-2" value="float monthlyRent = 0.0" style="rounded=0;whiteSpace=wrap;html=1;" parent="WIyWlLk6GJQsqaUBKTNV-1" vertex="1">
          <mxGeometry x="115" y="110" width="200" height="40" as="geometry" />
        </mxCell>
        <mxCell id="7Y_Yx_4p63XLYOxIkMzx-10" style="edgeStyle=orthogonalEdgeStyle;rounded=0;orthogonalLoop=1;jettySize=auto;html=1;" parent="WIyWlLk6GJQsqaUBKTNV-1" source="7Y_Yx_4p63XLYOxIkMzx-3" target="7Y_Yx_4p63XLYOxIkMzx-4" edge="1">
          <mxGeometry relative="1" as="geometry" />
        </mxCell>
        <mxCell id="7Y_Yx_4p63XLYOxIkMzx-3" value="float dailyCost = 0.0" style="rounded=0;whiteSpace=wrap;html=1;" parent="WIyWlLk6GJQsqaUBKTNV-1" vertex="1">
          <mxGeometry x="115" y="180" width="200" height="40" as="geometry" />
        </mxCell>
        <mxCell id="7Y_Yx_4p63XLYOxIkMzx-11" style="edgeStyle=orthogonalEdgeStyle;rounded=0;orthogonalLoop=1;jettySize=auto;html=1;" parent="WIyWlLk6GJQsqaUBKTNV-1" source="7Y_Yx_4p63XLYOxIkMzx-4" target="7Y_Yx_4p63XLYOxIkMzx-5" edge="1">
          <mxGeometry relative="1" as="geometry" />
        </mxCell>
        <mxCell id="7Y_Yx_4p63XLYOxIkMzx-4" value="output &quot;How much do you pay monthly for rent?&quot;" style="shape=parallelogram;html=1;strokeWidth=2;perimeter=parallelogramPerimeter;whiteSpace=wrap;rounded=1;arcSize=12;size=0.23;" parent="WIyWlLk6GJQsqaUBKTNV-1" vertex="1">
          <mxGeometry x="40" y="260" width="470" height="60" as="geometry" />
        </mxCell>
        <mxCell id="7Y_Yx_4p63XLYOxIkMzx-12" style="edgeStyle=orthogonalEdgeStyle;rounded=0;orthogonalLoop=1;jettySize=auto;html=1;" parent="WIyWlLk6GJQsqaUBKTNV-1" source="7Y_Yx_4p63XLYOxIkMzx-5" target="7Y_Yx_4p63XLYOxIkMzx-6" edge="1">
          <mxGeometry relative="1" as="geometry" />
        </mxCell>
        <mxCell id="7Y_Yx_4p63XLYOxIkMzx-5" value="input monthlyRent" style="shape=parallelogram;html=1;strokeWidth=2;perimeter=parallelogramPerimeter;whiteSpace=wrap;rounded=1;arcSize=12;size=0.23;" parent="WIyWlLk6GJQsqaUBKTNV-1" vertex="1">
          <mxGeometry x="115" y="360" width="240" height="40" as="geometry" />
        </mxCell>
        <mxCell id="7Y_Yx_4p63XLYOxIkMzx-13" style="edgeStyle=orthogonalEdgeStyle;rounded=0;orthogonalLoop=1;jettySize=auto;html=1;" parent="WIyWlLk6GJQsqaUBKTNV-1" source="7Y_Yx_4p63XLYOxIkMzx-6" target="7Y_Yx_4p63XLYOxIkMzx-7" edge="1">
          <mxGeometry relative="1" as="geometry" />
        </mxCell>
        <mxCell id="7Y_Yx_4p63XLYOxIkMzx-6" value="dailyCost = monthlyRent / 30" style="rounded=0;whiteSpace=wrap;html=1;" parent="WIyWlLk6GJQsqaUBKTNV-1" vertex="1">
          <mxGeometry x="95" y="450" width="280" height="50" as="geometry" />
        </mxCell>
        <mxCell id="7Y_Yx_4p63XLYOxIkMzx-15" style="edgeStyle=orthogonalEdgeStyle;rounded=0;orthogonalLoop=1;jettySize=auto;html=1;" parent="WIyWlLk6GJQsqaUBKTNV-1" source="7Y_Yx_4p63XLYOxIkMzx-7" target="7Y_Yx_4p63XLYOxIkMzx-14" edge="1">
          <mxGeometry relative="1" as="geometry" />
        </mxCell>
        <mxCell id="7Y_Yx_4p63XLYOxIkMzx-7" value="output &quot;The daily cost of your rent is $&quot; + dailyCost" style="shape=parallelogram;html=1;strokeWidth=2;perimeter=parallelogramPerimeter;whiteSpace=wrap;rounded=1;arcSize=12;size=0.23;" parent="WIyWlLk6GJQsqaUBKTNV-1" vertex="1">
          <mxGeometry x="60" y="550" width="460" height="50" as="geometry" />
        </mxCell>
        <mxCell id="7Y_Yx_4p63XLYOxIkMzx-14" value="stop" style="ellipse;whiteSpace=wrap;html=1;" parent="WIyWlLk6GJQsqaUBKTNV-1" vertex="1">
          <mxGeometry x="225" y="650" width="100" height="60" as="geometry" />
        </mxCell>
      </root>
    </mxGraphModel>
  </diagram>
</mxfile>
